/* XPM */
static char * floor_xpm[] = {
"64 64 680 2",
"  	c #05263B",
". 	c #052539",
"+ 	c #052538",
"@ 	c #06314D",
"# 	c #084267",
"$ 	c #08436A",
"% 	c #073757",
"& 	c #062F48",
"* 	c #062E48",
"= 	c #062F49",
"- 	c #062D45",
"; 	c #05283F",
"> 	c #062C44",
", 	c #063553",
"' 	c #084971",
") 	c #09507B",
"! 	c #094E77",
"~ 	c #094B73",
"{ 	c #074A71",
"] 	c #074970",
"^ 	c #074D76",
"/ 	c #09527D",
"( 	c #084B73",
"_ 	c #063755",
": 	c #052C44",
"< 	c #053450",
"[ 	c #053858",
"} 	c #053654",
"| 	c #063655",
"1 	c #064167",
"2 	c #063F64",
"3 	c #05314D",
"4 	c #052438",
"5 	c #084268",
"6 	c #0C5F95",
"7 	c #0D6299",
"8 	c #0A4C77",
"9 	c #093B5B",
"0 	c #093B5A",
"a 	c #093B5C",
"b 	c #083654",
"c 	c #083552",
"d 	c #0D6DA6",
"e 	c #1079B8",
"f 	c #1075B1",
"g 	c #0F71AA",
"h 	c #0B6EA8",
"i 	c #096DA6",
"j 	c #0C73AF",
"k 	c #0F7CBB",
"l 	c #0E71AB",
"m 	c #094C74",
"n 	c #053451",
"o 	c #05456C",
"p 	c #054F7A",
"q 	c #064A73",
"r 	c #084164",
"s 	c #094B75",
"t 	c #085E95",
"u 	c #075C91",
"v 	c #064066",
"w 	c #052F4B",
"x 	c #074166",
"y 	c #0A5585",
"z 	c #0E66A0",
"A 	c #0E659D",
"B 	c #0C507D",
"C 	c #0A4164",
"D 	c #0A4063",
"E 	c #093A59",
"F 	c #084F7A",
"G 	c #0E77B7",
"H 	c #1186CC",
"I 	c #1283C6",
"J 	c #1180C0",
"K 	c #0D7DBD",
"L 	c #0B7CBC",
"M 	c #0E83C6",
"N 	c #128DD4",
"O 	c #1180C2",
"P 	c #0A5581",
"Q 	c #053857",
"R 	c #054D77",
"S 	c #055888",
"T 	c #055889",
"U 	c #055786",
"V 	c #065482",
"W 	c #074F79",
"X 	c #09466C",
"Y 	c #0A5383",
"Z 	c #096AA8",
"` 	c #0867A4",
" .	c #064670",
"..	c #0A5E94",
"+.	c #0C659F",
"@.	c #0C5C8F",
"#.	c #0C517D",
"$.	c #0B476D",
"%.	c #0A4165",
"&.	c #074B75",
"*.	c #0A70AE",
"=.	c #0E80C4",
"-.	c #1281C4",
";.	c #1180C1",
">.	c #0E7EBE",
",.	c #0B7DBD",
"'.	c #0B7CBD",
").	c #0E84C7",
"!.	c #128DD5",
"~.	c #1181C3",
"{.	c #0A5582",
"].	c #054D78",
"^.	c #055989",
"/.	c #065583",
"(.	c #084D77",
"_.	c #09476D",
":.	c #0A4367",
"<.	c #0A5483",
"[.	c #096BA9",
"}.	c #0868A4",
"|.	c #064771",
"1.	c #0C649C",
"2.	c #0B507C",
"3.	c #064770",
"4.	c #0769A5",
"5.	c #0C7ABD",
"6.	c #117FC1",
"7.	c #0E7DBE",
"8.	c #063D60",
"9.	c #075787",
"0.	c #075F93",
"a.	c #075888",
"b.	c #065380",
"c.	c #0A4062",
"d.	c #0A5382",
"e.	c #0A466C",
"f.	c #0A4163",
"g.	c #093A5A",
"h.	c #05456E",
"i.	c #0667A2",
"j.	c #0B78BA",
"k.	c #107EC0",
"l.	c #07456C",
"m.	c #0B649C",
"n.	c #0C69A4",
"o.	c #0A5686",
"p.	c #09486F",
"q.	c #09476E",
"r.	c #084369",
"s.	c #0D6198",
"t.	c #0C507C",
"u.	c #0A3F61",
"v.	c #093958",
"w.	c #0666A2",
"x.	c #0A77BA",
"y.	c #0B7BBB",
"z.	c #074369",
"A.	c #0C6097",
"B.	c #0D659D",
"C.	c #0A466B",
"D.	c #0B5F95",
"E.	c #0A6EAD",
"F.	c #05466F",
"G.	c #0768A4",
"H.	c #0B79BC",
"I.	c #073756",
"J.	c #0A4A74",
"K.	c #0B507D",
"L.	c #0B476E",
"M.	c #0D71B1",
"N.	c #0B74B7",
"O.	c #0A4C76",
"P.	c #0C5584",
"Q.	c #0A4B76",
"R.	c #0B5584",
"S.	c #0B5483",
"T.	c #094A74",
"U.	c #073655",
"V.	c #064A74",
"W.	c #096EAC",
"X.	c #0E80C5",
"Y.	c #1285C9",
"Z.	c #1286C9",
"`.	c #1084C7",
" +	c #1087CD",
".+	c #128DD6",
"++	c #107FC1",
"@+	c #0A5481",
"#+	c #094A73",
"$+	c #0C5483",
"%+	c #0D6096",
"&+	c #0F72B1",
"*+	c #0F7ABE",
"=+	c #0D78BD",
"-+	c #0A69A6",
";+	c #074770",
">+	c #074267",
",+	c #0E6DAA",
"'+	c #0E6DAB",
")+	c #074268",
"!+	c #0D6DAB",
"~+	c #0D6CA9",
"{+	c #0A5F95",
"]+	c #074167",
"^+	c #084E79",
"/+	c #0D76B5",
"(+	c #1088D0",
"_+	c #138CD5",
":+	c #138ED5",
"<+	c #138DD5",
"[+	c #0F7CBC",
"}+	c #09527E",
"|+	c #0E70B0",
"1+	c #0F76B9",
"2+	c #0F79BE",
"3+	c #0E78BC",
"4+	c #0C6AA6",
"5+	c #074066",
"6+	c #0B5E94",
"7+	c #0D6AA6",
"8+	c #0D6AA7",
"9+	c #0D69A6",
"0+	c #0D69A5",
"a+	c #0B5D92",
"b+	c #074065",
"c+	c #0B5D93",
"d+	c #0B69A4",
"e+	c #095C90",
"f+	c #073F63",
"g+	c #08476E",
"h+	c #0C6BA4",
"i+	c #107FC0",
"j+	c #0F7CBD",
"k+	c #0C6BA5",
"l+	c #08486F",
"m+	c #073F64",
"n+	c #095C91",
"o+	c #0C69A5",
"p+	c #06314E",
"q+	c #084872",
"r+	c #074871",
"s+	c #084870",
"t+	c #095481",
"u+	c #063552",
"v+	c #084871",
"w+	c #084771",
"x+	c #084770",
"y+	c #073755",
"z+	c #06456E",
"A+	c #07466F",
"B+	c #05456F",
"C+	c #053F64",
"D+	c #05304C",
"E+	c #06324E",
"F+	c #053958",
"G+	c #053E60",
"H+	c #06466E",
"I+	c #074A74",
"J+	c #084973",
"K+	c #05253A",
"L+	c #083653",
"M+	c #0A4A73",
"N+	c #0B6096",
"O+	c #0A68A3",
"P+	c #07659F",
"Q+	c #06649F",
"R+	c #0967A2",
"S+	c #0C6096",
"T+	c #0B69A5",
"U+	c #0665A2",
"V+	c #0665A1",
"W+	c #05588D",
"X+	c #053C61",
"Y+	c #0A5C91",
"Z+	c #0A5C92",
"`+	c #05324E",
" @	c #05446A",
".@	c #054E78",
"+@	c #054E79",
"@@	c #065787",
"#@	c #09669F",
"$@	c #0B6DAA",
"%@	c #0C6CA8",
"&@	c #0B5F94",
"*@	c #052437",
"=@	c #052235",
"-@	c #062B42",
";@	c #0B4F7B",
">@	c #0C649B",
",@	c #0B6AA6",
"'@	c #0766A2",
")@	c #0769A7",
"!@	c #0B72B3",
"~@	c #0B5482",
"{@	c #0D649C",
"]@	c #0C6CAA",
"^@	c #0769A6",
"/@	c #075D94",
"(@	c #06446B",
"_@	c #08466F",
":@	c #0B6198",
"<@	c #0B6097",
"[@	c #064972",
"}@	c #06527F",
"|@	c #085C8E",
"1@	c #0A6AA4",
"2@	c #0C70AF",
"3@	c #0D6FAD",
"4@	c #0C6299",
"5@	c #0A476E",
"6@	c #0A507D",
"7@	c #074974",
"8@	c #085688",
"9@	c #0C6DAC",
"0@	c #095282",
"a@	c #095382",
"b@	c #094D79",
"c@	c #094267",
"d@	c #094369",
"e@	c #06324D",
"f@	c #094970",
"g@	c #094C76",
"h@	c #0A5381",
"i@	c #0B5686",
"j@	c #0B5685",
"k@	c #05263A",
"l@	c #094368",
"m@	c #07456D",
"n@	c #063F65",
"o@	c #062D46",
"p@	c #0A4E79",
"q@	c #096097",
"r@	c #085C92",
"s@	c #0A4F7C",
"t@	c #0A466D",
"u@	c #0B5484",
"v@	c #0B6DAB",
"w@	c #074872",
"x@	c #0A629A",
"y@	c #0A4E7A",
"z@	c #062E47",
"A@	c #0B5585",
"B@	c #0E6EAC",
"C@	c #0C6BA8",
"D@	c #075B90",
"E@	c #0867A3",
"F@	c #085E94",
"G@	c #084972",
"H@	c #073450",
"I@	c #062A41",
"J@	c #0A4B75",
"K@	c #083958",
"L@	c #062B43",
"M@	c #0C6198",
"N@	c #064168",
"O@	c #05283E",
"P@	c #084B74",
"Q@	c #084167",
"R@	c #094972",
"S@	c #094973",
"T@	c #094872",
"U@	c #094873",
"V@	c #084168",
"W@	c #06324F",
"X@	c #06334F",
"Y@	c #084468",
"Z@	c #094C73",
"`@	c #074972",
" #	c #064871",
".#	c #064872",
"+#	c #05314E",
"@#	c #094C75",
"##	c #0E70AA",
"$#	c #084064",
"%#	c #0C5D92",
"&#	c #0F6BA7",
"*#	c #106CA9",
"=#	c #106BA8",
"-#	c #106BA9",
";#	c #0F6BA8",
">#	c #0D5E95",
",#	c #084166",
"'#	c #0E6497",
")#	c #1072AB",
"!#	c #1072AC",
"~#	c #0E70AB",
"{#	c #0A6DA9",
"]#	c #086BA8",
"^#	c #086AA7",
"/#	c #075E94",
"(#	c #0A5683",
"_#	c #0D6097",
":#	c #106EAC",
"<#	c #116FAD",
"[#	c #1272B2",
"}#	c #1277BB",
"|#	c #1278BB",
"1#	c #1171B2",
"2#	c #0E629A",
"3#	c #09466E",
"4#	c #062E46",
"5#	c #09476F",
"6#	c #0D639A",
"7#	c #1071AB",
"8#	c #1381C2",
"9#	c #1281C2",
"0#	c #0F7EC0",
"a#	c #0C7BBE",
"b#	c #0A7ABD",
"c#	c #097ABD",
"d#	c #0A7ABE",
"e#	c #086BA7",
"f#	c #084063",
"g#	c #0D5685",
"h#	c #0F6198",
"i#	c #1172B3",
"j#	c #1172B2",
"k#	c #0E6198",
"l#	c #0C4F7C",
"m#	c #0A4267",
"n#	c #0A4369",
"o#	c #0F7FC0",
"p#	c #0D7DBE",
"q#	c #0B7CBE",
"r#	c #096DA7",
"s#	c #064971",
"t#	c #0F659E",
"u#	c #083957",
"v#	c #0B466D",
"w#	c #0D7EBE",
"x#	c #093959",
"y#	c #0E71AC",
"z#	c #062C45",
"A#	c #073857",
"B#	c #0A4D78",
"C#	c #0B517E",
"D#	c #1071AA",
"E#	c #05456B",
"F#	c #05466C",
"G#	c #0B659D",
"H#	c #0C69A2",
"I#	c #0B527F",
"J#	c #0B5583",
"K#	c #0D6DAA",
"L#	c #05334F",
"M#	c #06436A",
"N#	c #053C5E",
"O#	c #052B43",
"P#	c #094D75",
"Q#	c #073C5C",
"R#	c #05324F",
"S#	c #074B76",
"T#	c #0C70AE",
"U#	c #0E76B7",
"V#	c #0D6499",
"W#	c #0C517C",
"X#	c #0B466C",
"Y#	c #0C6095",
"Z#	c #0C6FAE",
"`#	c #1075B0",
" $	c #1285C8",
".$	c #0F84C8",
"+$	c #064166",
"@$	c #064268",
"#$	c #094A75",
"$$	c #095F96",
"%$	c #08629B",
"&$	c #065687",
"*$	c #053350",
"=$	c #0F73AF",
"-$	c #0B5582",
";$	c #064A72",
">$	c #0F7CBF",
",$	c #1076B5",
"'$	c #0F679E",
")$	c #0E71B0",
"!$	c #0A73B5",
"~$	c #0766A1",
"{$	c #0F7AB8",
"]$	c #128BD2",
"^$	c #0F7BBB",
"/$	c #086096",
"($	c #0A6EAB",
"_$	c #086197",
":$	c #0B6CAA",
"<$	c #0B73B4",
"[$	c #0969A4",
"}$	c #075686",
"|$	c #063C5E",
"1$	c #0D6092",
"2$	c #0A3F62",
"3$	c #07446B",
"4$	c #0E76B6",
"5$	c #107BBE",
"6$	c #0F73B0",
"7$	c #0B5A8A",
"8$	c #09456A",
"9$	c #0A4265",
"0$	c #0C5583",
"a$	c #0F6FAC",
"b$	c #0F79BD",
"c$	c #0975B9",
"d$	c #0665A0",
"e$	c #05456D",
"f$	c #084970",
"g$	c #107EBE",
"h$	c #097ABF",
"i$	c #0E78BB",
"j$	c #0D74B5",
"k$	c #0A639B",
"l$	c #1181C2",
"m$	c #0D6093",
"n$	c #054E7A",
"o$	c #0A4D77",
"p$	c #0F76B6",
"q$	c #0E75B4",
"r$	c #096196",
"s$	c #074E78",
"t$	c #09456B",
"u$	c #0F6FAD",
"v$	c #063653",
"w$	c #09537F",
"x$	c #0667A3",
"y$	c #0675B9",
"z$	c #0E659E",
"A$	c #0E6FAD",
"B$	c #0B5F96",
"C$	c #0D68A1",
"D$	c #0C6FAC",
"E$	c #0969A2",
"F$	c #085C8F",
"G$	c #0F6EAC",
"H$	c #065C93",
"I$	c #0668A5",
"J$	c #0667A5",
"K$	c #055B92",
"L$	c #053F65",
"M$	c #0B6095",
"N$	c #0B6FAC",
"O$	c #0B6BA6",
"P$	c #094266",
"Q$	c #084C77",
"R$	c #085180",
"S$	c #08517F",
"T$	c #063554",
"U$	c #073451",
"V$	c #055787",
"W$	c #0C68A1",
"X$	c #0C67A0",
"Y$	c #0F6EAB",
"Z$	c #0C639B",
"`$	c #06293F",
" %	c #084D76",
".%	c #06314C",
"+%	c #0B527E",
"@%	c #0A486F",
"#%	c #0A4B74",
"$%	c #05324D",
"%%	c #064266",
"&%	c #074971",
"*%	c #074E79",
"=%	c #063757",
"-%	c #094D78",
";%	c #0A5786",
">%	c #0E79BD",
",%	c #0566A1",
"'%	c #086194",
")%	c #096EA7",
"!%	c #086093",
"~%	c #064265",
"{%	c #09639B",
"]%	c #0B70AF",
"^%	c #0B71B0",
"/%	c #0B70AE",
"(%	c #0B6FAD",
"_%	c #0C6EAC",
":%	c #0E76B8",
"<%	c #0D77BB",
"[%	c #0874B7",
"}%	c #0564A0",
"|%	c #05446D",
"1%	c #0A5F94",
"2%	c #096DAB",
"3%	c #096EAB",
"4%	c #0A6DAA",
"5%	c #0B6BA8",
"6%	c #0C6BA7",
"7%	c #0A69A4",
"8%	c #05588C",
"9%	c #053D61",
"0%	c #0B5E93",
"a%	c #0A6EA7",
"b%	c #0B7DBE",
"c%	c #094870",
"d%	c #064269",
"e%	c #074A75",
"f%	c #074973",
"g%	c #07476F",
"h%	c #053E62",
"i%	c #074F7A",
"j%	c #05293F",
"k%	c #06466D",
"l%	c #0C6CA9",
"m%	c #0966A0",
"n%	c #065788",
"o%	c #093D5E",
"p%	c #0C68A2",
"q%	c #0C73B3",
"r%	c #0B74B5",
"s%	c #096DA9",
"t%	c #075D90",
"u%	c #085F93",
"v%	c #085889",
"w%	c #0A4C75",
"x%	c #08639A",
"y%	c #07649B",
"z%	c #075D91",
"A%	c #08517D",
"B%	c #0D6AA4",
"C%	c #0C659E",
"D%	c #08456D",
"E%	c #09466B",
"F%	c #0A4266",
"G%	c #0C639C",
"H%	c #0A5485",
"I%	c #0F73AE",
"J%	c #0B5481",
"K%	c #083754",
"L%	c #0C5E94",
"M%	c #052336",
"N%	c #052234",
"O%	c #064165",
"P%	c #0A72AD",
"Q%	c #0B79B7",
"R%	c #074771",
"S%	c #063756",
"T%	c #0A537E",
"U%	c #0A5380",
"V%	c #05314C",
"W%	c #085B8B",
"X%	c #074A72",
"Y%	c #0C69A6",
"Z%	c #0A69A5",
"`%	c #084C74",
" &	c #096DA5",
".&	c #0C73AE",
"+&	c #117DBD",
"@&	c #117EBF",
"#&	c #0D75B5",
"$&	c #09639A",
"%&	c #064369",
"&&	c #05304D",
"*&	c #085A8C",
"=&	c #0E75B8",
"-&	c #0C6FAF",
";&	c #07456E",
">&	c #0A629B",
",&	c #0E81C3",
"'&	c #128AD0",
")&	c #0E83C8",
"!&	c #0A6FAC",
"~&	c #074A73",
"{&	c #085F95",
"]&	c #0970AE",
"^&	c #0A78B8",
"/&	c #0C7EC0",
"(&	c #0E82C4",
"_&	c #0C7FC1",
":&	c #0A6FA9",
"<&	c #06446C",
"[&	c #08659F",
"}&	c #0976B7",
"|&	c #0A7ABC",
"1&	c #053D5F",
"2&	c #065889",
"3&	c #076AA5",
"4&	c #0975B6",
"5&	c #096CA8",
"6&	c #05476E",
"7&	c #085F96",
"                                                                                                                                ",
"      . + @ # $ % & * = & - ; ; - & = & & & & = & > ; , ' ) ! ~ { ] ] ] ] ] ] ] ] ^ / ( _ : < [ [ [ [ [ [ } @ & & * & | 1 2 3   ",
"      4   5 6 7 8 9 0 a 9 b - - b 9 a 9 9 9 9 a 9 c - ' d e f g h i i i i i i i i j k l m n o p p p p p p q r 9 9 0 9 s t u v   ",
"  . 4 w x y z A B C D C C 9 & & 9 C C C C C C C C E & F G H I J K L L L L L L L L M N O P Q R S T S S U V W X C C D C Y Z `  .  ",
"  +   x ..+.@.#.$.C C %.C 9 = = 9 C %.C C C C %.C E = &.*.=.-.;.>.,.'.,.,.,.,.L ,.).!.~.{.[ ].T ^.^.T /.(._.:.C C D C <.[.}.|.  ",
"  @ 5 y +.1.2.C D C C C C 9 & & 9 C C C C C C C C E & 3.4.5.6.J 7.L L L L L L L L M N O P 8.9.0.a.b.b.W X C C C C c.D d.Z `  .  ",
"  # 6 z @.2.e.D f.C C C C 9 & & 9 C C C C C C C C g.& h.i.j.k.J 7.L L L L L L L L M N O P l.m.n.o.p.q.X :.C C C C D C Y Z `  .  ",
"  r.s.A t.D u.D D D D D D g.* * g.D D D D D D D D v.* h.w.x.k.J K L L L L L L y.L M N O P z.A.B.2.D u.D D D D c.D C.2.D.E.}. .  ",
"  % 8 B $.D f.C C C C C C 9 & & 9 C C C C C C C C E & F.G.H.6.J 7.L L L L L L L L M N O P I.J.K.L.C D C C C C D C 2.A M.N.}. .  ",
"  I.O.P.P.P.P.P.P.P.P.P.P.Q.I.I.Q.P.P.P.P.P.P.R.S.T.U.V.W.X.Y.Z.`.M M M M M M M M  +.+++@+U.#+S.R.P.P.P.P.P.P.$+P.%+&+*+=+-+;+  ",
"  >+A.,+'+'+'+'+'+'+'+'+'+A.)+)+A.'+'+'+'+'+'+!+~+{+]+^+/+(+_+:+<+N N N N N N N N .+.+[+}+]+..~+!+'+'+'+'+'+'+,+'+|+1+2+3+4+;+  ",
"  5+6+7+8+7+7+7+9+0+9+7+9+a+b+b+c+7+8+7+7+7+7+4+d+e+f+g+h+[+i+;.O O O O O O O O O ++j+k+l+m+n+o+4+7+9+0+0+9+7+7+7+7+7+8+7+6+5+  ",
"  p+]+q+q+q+q+q+q+q+q+q+q+x p+p+x q+q+q+q+q+q+q+r+b+@ , s+}+t+P P P P P P P P P P @+}+l+u+@ b+r+q+q+q+q+q+q+q+q+q+v+w+w+x+5+@   ",
"  ; - & = * & y+)+;+z+z+A+]+U.& * & & & & * & I.z.r+ .B+B+B+B+F.B+C+D+E+x ]+E+: n [ F+[ [ [ [ [ [ G+H+I+J+)+E+  K+; - = = - ;   ",
"  > L+E g.v.E M+N+O+P+Q+R+{+T.9 E E E E E v.E J.S+T+` U+V+V+V+V+V+W+X+m+Y+Z+m+`+ @]..@.@+@+@+@]..@@@#@$@%@&@b+*@=@-@c g.g.L+>   ",
"  & 9 C C D C ;@>@,@'@)@!@~+~@C D C C C C D C 2.{@]@Z ^@^@^@^@)@^@/@(@_@:@<@z.} [@b.b.b.b.b.b.}@b.|@1@2@3@4@>+4 *@& 9 C C 9 &   ",
"  = a C %.C C 5@2.6@7@8@9@!+R.C D C C C C C C L.K.S.Y 0@0@0@0@a@0@b@c@d@;@Q.I.e@r p.f@p.p.p.p.p.p.g@h@i@j@8 I.k@K+= a %.%.a =   ",
"  * 0 D D D D f.C E & q+7+'+P.C D C C C C C C C C C C C C C C C C C C C C 9 & & 9 C C C C C C C C C C C C l@m@n@3 & 9 C C 9 &   ",
"  & 9 C C C C C D v.o@w+7+'+P.C D C C C C C C C D D D D D D D D D f.C C D g.* & 9 C C C C C C C C f.D u.c.p@q@r@v & g.C C 9 &   ",
"  | s Y <.Y Y s@t@g.* q+8+'+P.C D C C C C C C C C C C C C C C C C C C %.C 9 = = 9 C %.C C C C C C C C D C u@v@-+w@& E C C 9 &   ",
"  1 t Z [.[.Z x@y@E z@q+7+'+P.C D C C C C C C C C C C C C C C C C C C C C 9 & & 9 C C C C C C C C C C c.C A@B@C@J+& E C C 9 &   ",
"  2 D@E@}.}.E@F@G@H@I@b+a+S+J@E K@g.9 9 9 9 9 9 9 9 9 9 9 9 9 9 9 9 9 a 9 L+L@L@L+9 0 g.9 9 g.E E E E v.E J@M@&@>+& g.C C 9 &   ",
"  3 v  .|.3. .N@| > O@p+5+)+I.& * & & & & & & & & & & & & & & & & & & = & - ; ; - & = & & & & & & & & * & I.r.x E+& 9 C C 9 &   ",
"  _ P@( _ E+Q@R@S@S@T@T@S@S@T@U@T@V@p+k@. k@k@k@k@k@k@k@k@        k@k@. k@W@5 r.% I.>+b+p+X@Y@Z@m ( `@ # #.# #v +#& 9 C C 9 &   ",
"  @#l ##m $#%#&#*#*#*#*#=#=#-#*#;#>#,#k@4 k@k@k@k@k@k@k@k@k@k@k@k@k@k@4 k@# 6 s.8 Q.S+c+x Y@'#)#!#~#{#]#]#]#^#/#v & g.C C 9 &   ",
"  (#O O (#5 _#:#<#[#}#}#[#[#}#|#1#2#3#& 4#& & & & & & = & - ; ; - & = o@& 5#6#A #.P.,+0+q+Z@7#8#9#0#a#b#c#d#b#e# #@ f#p.p.r @   ",
"  (#~.~.(#I.J.P.g#h#i#j#h#h#j#i#k#l#m#9 9 9 9 9 9 9 9 a 9 b - - b 9 a 9 9 n#2.t.L.P.'+7+q+m )#9#o#p#q#'.'.q#'.r#s#} s#b.b.q }   ",
"  (#O O (#& K@D C #.t#t##.#.t#t##.C D C C C C C C C C C C 9 & & 9 C C C C C C D C P.'+0+q+m 7#J >.L L L L ,.L i ] [ .@T T p [   ",
"  (#O O (#* u#c.D v#t.t.v#v#t.t.v#D f.C C C C C C C C %.C 9 = = 9 C %.C C C D u.C P.'+0+q+m 7#J w#L L L L ,.L i ] [ +@^.^.p [   ",
"  (#~.~.(#= x#C %.C C C C C C C C C C C C C C C C C C %.C 9 = * g.D C C C C C D C P.'+0+q+m 7#J >.L L L L ,.L i ] [ +@^.^.p [   ",
"  (#O O (#& K@C C C D D C C D D C C C C C C C C C C C C C 9 & & 9 C C C C C C D C P.'+0+q+m 7#J >.L L L L ,.L i ] [ .@T T p [   ",
"  @#y#l @#z#c 9 9 9 9 9 9 9 g.g.0 9 9 9 E E 0 9 9 9 9 9 9 L+z#A#B#C#5@D D C C c.D S.,+o+q+Z@D#J w#L L L L L L i ] n E#+@+@F#n   ",
"  _ P@( _ ; > & = & & & & & & & & & & & & & & & & & & = & L@; l.G#H#I#C D C C D C J#K#o+v+m 7#J >.L L L L ,.L i ] : L#[ [ n :   ",
"  ; - & = & & & & & & * & | 1 M#N#L#O#_ ( P#Q#& * @ } [ [ R#: S#T#U#V#W#X#f.f.X#t.Y#Z#O+;+! `# $.$M M M M ).M j ^ `++$I+I+@$`+  ",
"  > c E 9 9 9 9 9 9 9 g.9 #$$$%$&$E#*$@#l =$-$9 E r ;$p p o n &.T#>$,$'$W#D D t.A )$!$~$z+) {$]$N N N N N !.N ^$/ @$/$($($_$@$  ",
"  & 9 C C C C C C C C D C S.:$<$[$}$|${.O I 1$C 2$p.b.T S .@[ 3$G#4$5$6$7$8$9$0$a$b$c$d$e$f$d g$;.O O O O ~.O l (  #e#h$h$]#.#  ",
"  = a C %.C C C C C C D C R.B@i$j$k$3$(#l$I m$C c.p.b.^.^.n$[ y+o$6#p$q$r$s$t$P.u$b$c$V+e$v$f$w$@+P P P P {.P ~ _ B+x$y$y$x$B+  ",
"  = a C %.C C C C C C f.C 2.z$A$B@B$)+{.O I 1$C 2$p.b.T T p [ z@9 C#C$D$E$F$@#0$G$b$c$V+e$E+b+)+I.& * & & & & z@& M#H$I$J$K$L$  ",
"  & 9 C C C C C C C C C C $.2.P.u@#+U.{.O I 1$C 2$p.b.T S +@[ z@E e.C#M$N$O$@+0$G$b$c$d$e$x Y+D.T.K@u#K@K@K@K@E 9 P$Q$R$S$w@T$  ",
"  > L+E g.g.9 9 9 9 9 9 9 9 9 9 9 U$- {.O I 1$C 2$p.b.V$V ;$} * E u.D C#W$X$C#$+Y$b$c$d$e$)+D.Z$;@D u.D D D D D D D D D D 0 *   ",
"  ; - & = & & & & & & & & * z@o@o@`$O@{.O I 1$C 2$p.b.V  %r .%& 9 D D 5@+%C#@%0$G$b$c$V+e$I.#%2.5@C C C C C C C C C f.D D 0 *   ",
"  $%%%&%&%%%$%: n [ F+F+[ } @ = & I@; {.O I 1$C 2$X *%W X 9 * =%-%o.;%o.o.A@A@%+&+>%c$,%h.U.T.S.R.P.P.P.P.P.P.P.P.P.P.P.P.O.I.  ",
"  %%'%)%)%!%~%n F#+@p p +@;$r 9 9 U$- {.O I 1$C 2$:.X X :.E * M#{%]%^%]%/%(%_%)$:%<%[%}%|%]+1%~+!+'+'+'+'+'+'+'+'+'+'+'+'+A.)+  ",
"  ] i ,.,.i ] } s#b.b.b.b.W X C C K@& {.O I 1$C 2$:.X _.:.g.& @$_$2%3%2%2%4%5%6%4+7%~$8%9%f+Y+o+4+7+7+7+7+7+7+7+7+7+7+8+7+0%5+  ",
"  &%a%b%b%)%&%e@f#p.f@c%p._.:.%.C E = {.O I 1$C 2$X *%W X 9 * R#d%I+e%I+I+I+f%w@;+g%z+h%D+@ 5+r+q+q+q+q+q+q+q+q+q+q+q+q+q+]+p+  ",
"  ] i ,.,.i ] @ f#X :.C C C C C C K@& {.O I 1$C 2$X W i%X 9 * j%- = = & & & & * & I.z.J+I+k%G+[ [ [ [ [ [ [ [ [ [ [ [ [ Q *$O#  ",
"  ] i ,.,.i ] } s#*%X C D C C C C K@& {.O I 1$C 2$:.X _.:.9 & > c E g.E E E E v.E #%M@l%$@m%n%.@]..@.@.@.@.@.@.@.@.@.@+@.@F#n   ",
"  ] i ,.,.i ] F++@b.c%C C C C C C K@& {.O I 1$C 2$C C C C 9 & - b o%c.C C C C D C C#p%q%r%s%t%b.}@V U S S S S U V }@}@9.u%v%8.  ",
"  ] i ,.,.i ] F++@b.c%C C C C C C K@& {.O I 1$C 2$C C C C 9 & ; - U$o%C %.C C C C w%|@x%y%z%A%p.p.(./.T ^.^.T /.(.p.p.;%B%C%D%  ",
"  ] i ,.,.i ] } s#W _.C C C C C C K@& {.O I 1$C 2$C C C C 9 & k@k@& 9 C C C C C C X W b.b.W X C C X W b.b.b.b.*%E%e.2.@.z 6 #   ",
"  ] i ,.,.i ] @ f#X :.C C C C C C K@& {.O I 1$C 2$C C C C 9 & K+K+* 9 C C C C C C :.E%q.q.E%F%f.f.:.X p.p.p.p.t$:.2.G%C%H%# @   ",
"  ] i ,.,.i ] & E C C C C C C C C K@& (#~.I m$C c.C C %.C a = k@k@= a C %.C C C C C C C C C C C C C C C C C C $.#.@.+...x   +   ",
"  ] i ,.,.i ] & E C C C C C C C C K@& {.O I 1$C 2$C C C C 9 & k@k@& 9 C C C C C C C C C C C C C C C C C C c.C B A z y x w 4 .   ",
"  &%a%,.,.i ] & E C C C C C C C C E & @#l I%J%g.E 9 9 a 9 K%- K+4 L@b 9 9 9 9 9 9 9 9 9 9 9 9 9 9 9 9 9 E u#E J@s.L%b+M%N%4 K+  ",
"  ] i ,.,.i ] & E C C C C C C C C 9 & _ ( P#Q#& * & & = & - ;     ; - & = & & & & & & & & & & & & & & & & * & % $ # @ + .       ",
"  O%!%P%Q%i &%@ f#X :.C C C C C C 9 & @ b+R%R%v 3 k@. k@k@. k@+#v @$S%& * & & & & @ } [ F+[ [ [ [ < : _ ( / ^ ] ]  %T%U%^+M#R#  ",
"  V%%%W%P%i X%} s#W _.C C C C C C g.& b+a+Y%Z%r@n@k@4 k@k@4   v r@$$s 9 g.9 9 9 9 r ;$+@p +@+@p +@E#n `%l k j i  &.&+&@&#&$&%&  ",
"  &&@$*&P%i X%[ .@V (.X F%C C :.X f#e@w+7+=&-&q@l.& 4#& & 4#& ;&q@>&s@C D C C C C X W b.b.V U T S ].[ P O N M L L ,&'&]$)&!&~&  ",
"  +${&]&^&i &%[ +@U /.W X C C _.W s#} q+8+|+S+y@c@9 9 9 9 9 9 l@y@s@5@C C C C C C :._.p.c%(./.^.^.].[ {.~.!.).'.L /&(&M _&:&X%  ",
"  <&[&}&|&r#&%[ +@^.^./.(.X :._.i%s#} q+8+'+P.C D C C C C C C C C C C C C C C C C C C C C p.b.^.^.].[ {.~.!.).,.L ,.,.b%,.a%&%  ",
"  1&2&3&4&5&[@[ .@S ^.U V W X :.X f#e@q+7+,+$+D c.C C C C C C C D D C C C C C C C C C D C p.b.T S ].[ P O N M L L L L L L i ]   ",
"  *$6&2&[&7&@$n F#p p p p q r a 9 L+- ]+6+A.O.9 0 9 9 9 9 9 9 9 9 9 9 9 9 9 9 9 9 9 9 9 9 r q p p o n m l k j i i i i a%i '%%%  ",
"  O#*$1&<&1 `+: n [ [ [ [ } @ & * > ; p+5+)+I.& * & & & & & & & & & & & & & & & & & & & & @ } [ [ < : _ ( / ^ ] ] ] ] &%] %%$%  ",
"                                                                                                                                "};
