/* XPM */
static char * open24_xpm[] = {
"64 64 612 2",
"  	c #6C1313",
". 	c #09507B",
"+ 	c #094E77",
"@ 	c #094B73",
"# 	c #074A71",
"$ 	c #074970",
"% 	c #074D76",
"& 	c #09527D",
"* 	c #0C5F95",
"= 	c #0D6299",
"- 	c #0D6DA6",
"; 	c #681E2B",
"> 	c #681D29",
", 	c #196CA5",
"' 	c #096DA6",
") 	c #681C29",
"! 	c #681F2C",
"~ 	c #681E2A",
"{ 	c #054D77",
"] 	c #085E95",
"^ 	c #075C91",
"/ 	c #063E62",
"( 	c #0A5585",
"_ 	c #0E66A0",
": 	c #0E659D",
"< 	c #0C507D",
"[ 	c #084D77",
"} 	c #682130",
"| 	c #68202D",
"1 	c #681F2D",
"2 	c #128DD4",
"3 	c #0A5581",
"4 	c #055888",
"5 	c #055889",
"6 	c #055786",
"7 	c #065482",
"8 	c #053F61",
"9 	c #0A5383",
"0 	c #0F69A7",
"a 	c #0867A4",
"b 	c #0A5E94",
"c 	c #0C659F",
"d 	c #0C5C8F",
"e 	c #0C517D",
"f 	c #681A24",
"g 	c #68202E",
"h 	c #128DD5",
"i 	c #0A5582",
"j 	c #21314E",
"k 	c #055989",
"l 	c #065583",
"m 	c #0A5483",
"n 	c #1869A6",
"o 	c #0868A4",
"p 	c #0C649C",
"q 	c #0B507C",
"r 	c #0769A5",
"s 	c #075787",
"t 	c #075F93",
"u 	c #075888",
"v 	c #065380",
"w 	c #0A5382",
"x 	c #450304",
"y 	c #CE7E7C",
"z 	c #0B649C",
"A 	c #0C69A4",
"B 	c #0A5686",
"C 	c #0D6198",
"D 	c #0C507C",
"E 	c #B94344",
"F 	c #B65254",
"G 	c #780204",
"H 	c #0C6097",
"I 	c #0D659D",
"J 	c #0B5F95",
"K 	c #642940",
"L 	c #B04C4C",
"M 	c #B00204",
"N 	c #8A8A64",
"O 	c #969A24",
"P 	c #B6B60C",
"Q 	c #CAC614",
"R 	c #CECE34",
"S 	c #CACE54",
"T 	c #CACA94",
"U 	c #C24E4C",
"V 	c #0B507D",
"W 	c #65293F",
"X 	c #652B43",
"Y 	c #0C5584",
"Z 	c #195381",
"` 	c #115382",
" .	c #AA0204",
"..	c #3D73B0",
"+.	c #128DD6",
"@.	c #0A5481",
"#.	c #0B5483",
"$.	c #0B5584",
"%.	c #0C5483",
"&.	c #0D6096",
"*.	c #652D46",
"=.	c #652C45",
"-.	c #0A69A6",
";.	c #642539",
">.	c #5C2D48",
",.	c #5E324F",
"'.	c #5E314D",
").	c #9E4244",
"!.	c #BC0204",
"~.	c #A40204",
"{.	c #9E262C",
"].	c #8C3A3C",
"^.	c #5C1414",
"/.	c #5B0204",
"(.	c #700204",
"_.	c #722214",
":.	c #B52624",
"<.	c #6C0F0F",
"[.	c #09527E",
"}.	c #1A6AA6",
"|.	c #584269",
"1.	c #41598D",
"2.	c #642B43",
"3.	c #652B44",
"4.	c #652C46",
"5.	c #0C6AA6",
"6.	c #0B5E94",
"7.	c #65283D",
"8.	c #65273D",
"9.	c #65273C",
"0.	c #0B5D92",
"a.	c #0F5182",
"b.	c #5E304B",
"c.	c #5E304C",
"d.	c #8E3234",
"e.	c #B60204",
"f.	c #C20204",
"g.	c #860204",
"h.	c #560304",
"i.	c #800204",
"j.	c #9E0204",
"k.	c #920204",
"l.	c #620204",
"m.	c #A41314",
"n.	c #0F7CBD",
"o.	c #0C6BA5",
"p.	c #095C91",
"q.	c #0C69A5",
"r.	c #0D6AA6",
"s.	c #0D69A6",
"t.	c #0D69A5",
"u.	c #0D6AA7",
"v.	c #996A6C",
"w.	c #920D09",
"x.	c #C80204",
"y.	c #690204",
"z.	c #980204",
"A.	c #984C4C",
"B.	c #E2DEDC",
"C.	c #AE5E5C",
"D.	c #BC6A6C",
"E.	c #A21A1C",
"F.	c #890A05",
"G.	c #5D3250",
"H.	c #5E3554",
"I.	c #5E3251",
"J.	c #5E3453",
"K.	c #5D324F",
"L.	c #095586",
"M.	c #681313",
"N.	c #690F0F",
"O.	c #941B1C",
"P.	c #B8B4B4",
"Q.	c #E8E6E4",
"R.	c #CCB4B4",
"S.	c #C07C7C",
"T.	c #F3F2EB",
"U.	c #B49696",
"V.	c #750507",
"W.	c #21324E",
"X.	c #033E61",
"Y.	c #065787",
"Z.	c #09669F",
"`.	c #0B6DAA",
" +	c #0C6CA8",
".+	c #0B5F94",
"++	c #0B4F7B",
"@+	c #5E3755",
"#+	c #5E3353",
"$+	c #5E3655",
"%+	c #5E395B",
"&+	c #5E3756",
"*+	c #0B5482",
"=+	c #0A598B",
"-+	c #521614",
";+	c #9E5A5C",
">+	c #D4D4D4",
",+	c #A7A5A1",
"'+	c #DEC4C4",
")+	c #E4D6D4",
"!+	c #F4F2F4",
"~+	c #CCCAC4",
"{+	c #9A161C",
"]+	c #8C0204",
"^+	c #862C2C",
"/+	c #06527F",
"(+	c #085C8E",
"_+	c #0A6AA4",
":+	c #0C70AF",
"<+	c #0D6FAD",
"[+	c #0C6299",
"}+	c #0A507D",
"|+	c #074974",
"1+	c #085688",
"2+	c #5E3858",
"3+	c #09476F",
"4+	c #7E5E5C",
"5+	c #A39694",
"6+	c #6B6667",
"7+	c #322624",
"8+	c #B09E9C",
"9+	c #B23234",
"0+	c #6D0F0F",
"a+	c #0A5381",
"b+	c #0B5686",
"c+	c #0B5685",
"d+	c #5F3858",
"e+	c #500304",
"f+	c #222224",
"g+	c #2E322C",
"h+	c #925C5C",
"i+	c #721A1C",
"j+	c #6E6E6C",
"k+	c #0A0A0C",
"l+	c #B2B2B4",
"m+	c #8E6264",
"n+	c #884444",
"o+	c #8C5C5C",
"p+	c #121214",
"q+	c #B2AEAC",
"r+	c #C21E1C",
"s+	c #063E61",
"t+	c #096097",
"u+	c #085C92",
"v+	c #0A4F7C",
"w+	c #623E3C",
"x+	c #6D0A0B",
"y+	c #8A0A04",
"z+	c #B64E4C",
"A+	c #BC3634",
"B+	c #0B5484",
"C+	c #0B6DAB",
"D+	c #096AA8",
"E+	c #096BA9",
"F+	c #0A629A",
"G+	c #0A4C77",
"H+	c #624E1C",
"I+	c #6E727C",
"J+	c #6E0F0F",
"K+	c #824E4C",
"L+	c #0B5585",
"M+	c #0E6EAC",
"N+	c #0C6BA8",
"O+	c #075B90",
"P+	c #0867A3",
"Q+	c #085E94",
"R+	c #22598C",
"S+	c #8B8D87",
"T+	c #A09674",
"U+	c #766844",
"V+	c #7A663C",
"W+	c #828C90",
"X+	c #671313",
"Y+	c #0C6198",
"Z+	c #BEB6A4",
"`+	c #3A0204",
" @	c #700305",
".@	c #690D0E",
"+@	c #460304",
"@@	c #8E9298",
"#@	c #562529",
"$@	c #690C0D",
"%@	c #680F0F",
"&@	c #5E0B0B",
"*@	c #7C3838",
"=@	c #0E71AB",
"-@	c #0E70AA",
";@	c #0C5D92",
">@	c #56456A",
",@	c #56456C",
"'@	c #56456B",
")@	c #2D578A",
"!@	c #BAB294",
"~@	c #660E0E",
"{@	c #7E4644",
"]@	c #0C6096",
"^@	c #0B5D93",
"/@	c #0E6497",
"(@	c #594365",
"_@	c #5A4264",
":@	c #594165",
"<@	c #584267",
"[@	c #25659F",
"}@	c #1768A4",
"|@	c #075E94",
"1@	c #0A5683",
"2@	c #64334F",
"3@	c #533F66",
"4@	c #58446A",
"5@	c #584369",
"6@	c #5A4267",
"7@	c #594771",
"8@	c #5A4167",
"9@	c #534267",
"0@	c #929A9C",
"a@	c #6C1718",
"b@	c #594265",
"c@	c #5C4970",
"d@	c #5B476E",
"e@	c #5A476D",
"f@	c #5A466C",
"g@	c #5A466D",
"h@	c #1769A4",
"i@	c #64344F",
"j@	c #0D5685",
"k@	c #534166",
"l@	c #5B4066",
"m@	c #524268",
"n@	c #0C4F7C",
"o@	c #630A0B",
"p@	c #660F0F",
"q@	c #A60E0C",
"r@	c #AE1E1C",
"s@	c #460A0C",
"t@	c #5B486E",
"u@	c #5A476C",
"v@	c #186BA4",
"w@	c #563F65",
"x@	c #A6AAA4",
"y@	c #6A4A4C",
"z@	c #5B476D",
"A@	c #5A476B",
"B@	c #0F6CA5",
"C@	c #784C50",
"D@	c #741213",
"E@	c #9E1E1C",
"F@	c #988C90",
"G@	c #821E1C",
"H@	c #7A1618",
"I@	c #7A6E74",
"J@	c #7E7A77",
"K@	c #808688",
"L@	c #828284",
"M@	c #828279",
"N@	c #827A64",
"O@	c #7E765C",
"P@	c #864A34",
"Q@	c #825A44",
"R@	c #766E54",
"S@	c #7E7E74",
"T@	c #806464",
"U@	c #7E724C",
"V@	c #766634",
"W@	c #765A2C",
"X@	c #8E7E54",
"Y@	c #A69E8C",
"Z@	c #C7C2AC",
"`@	c #9A2A1C",
" #	c #AA3A3C",
".#	c #094C75",
"+#	c #0E71AC",
"@#	c #979894",
"##	c #70684C",
"$#	c #62522C",
"%#	c #6E5E3C",
"&#	c #92866C",
"*#	c #968E6C",
"=#	c #826E54",
"-#	c #84765C",
";#	c #86522C",
">#	c #7E4624",
",#	c #7E3614",
"'#	c #A72531",
")#	c #A72532",
"!#	c #0E6DAA",
"~#	c #084B74",
"{#	c #084A71",
"]#	c #A72533",
"^#	c #0B5583",
"/#	c #0D6DAA",
"(#	c #6E5254",
"_#	c #712E2C",
":#	c #671E1C",
"<#	c #A72735",
"[#	c #0C6095",
"}#	c #0C6FAE",
"|#	c #0A68A3",
"1#	c #5B4365",
"2#	c #5C4C72",
"3#	c #5B4B72",
"4#	c #5B4B71",
"5#	c #5A4164",
"6#	c #7A5654",
"7#	c #82727C",
"8#	c #0E71B0",
"9#	c #0A73B5",
"0#	c #0766A1",
"a#	c #5B4669",
"b#	c #168AD1",
"c#	c #5B476A",
"d#	c #086096",
"e#	c #445889",
"f#	c #086197",
"g#	c #0B73B4",
"h#	c #0969A4",
"i#	c #075686",
"j#	c #A63634",
"k#	c #8A6A6C",
"l#	c #A72633",
"m#	c #0C5583",
"n#	c #0F6FAC",
"o#	c #0F79BD",
"p#	c #0975B9",
"q#	c #0665A0",
"r#	c #126CA5",
"s#	c #5B486F",
"t#	c #5B4870",
"u#	c #5B4970",
"v#	c #524770",
"w#	c #446199",
"x#	c #54476F",
"y#	c #0E78BB",
"z#	c #0D74B5",
"A#	c #0A639B",
"B#	c #814F76",
"C#	c #863534",
"D#	c #5C1A18",
"E#	c #6A2C2C",
"F#	c #A72734",
"G#	c #0F6FAD",
"H#	c #0665A1",
"I#	c #09537F",
"J#	c #554068",
"K#	c #465C92",
"L#	c #0E6FAD",
"M#	c #0B5F96",
"N#	c #A72939",
"O#	c #814E75",
"P#	c #8174AF",
"Q#	c #8276B2",
"R#	c #085C8F",
"S#	c #0F6EAC",
"T#	c #553A5E",
"U#	c #574068",
"V#	c #573F68",
"W#	c #543B5F",
"X#	c #094971",
"Y#	c #A72430",
"Z#	c #0D6092",
"`#	c #A72431",
" $	c #0B6FAC",
".$	c #0B6BA6",
"+$	c #0A5C91",
"@$	c #085180",
"#$	c #08517F",
"$$	c #A7232F",
"%$	c #A7212B",
"&$	c #0C639B",
"*$	c #A7222A",
"=$	c #A7212A",
"-$	c #5E0E14",
";$	c #064369",
">$	c #A7222B",
",$	c #868684",
"'$	c #053E61",
")$	c #086194",
"!$	c #096EA7",
"~$	c #086093",
"{$	c #033958",
"]$	c #054E79",
"^$	c #054F7A",
"/$	c #05476D",
"($	c #0A5F94",
"_$	c #0D6CA9",
":$	c #0D6DAB",
"<$	c #0E6DAB",
"[$	c #064163",
"}$	c #672537",
"|$	c #054369",
"1$	c #074F79",
"2$	c #063958",
"3$	c #A72837",
"4$	c #8F1614",
"5$	c #096EAB",
"6$	c #096DAB",
"7$	c #0B6BA8",
"8$	c #0C6BA7",
"9$	c #05588C",
"0$	c #0B5E93",
"a$	c #0A6EA7",
"b$	c #672538",
"c$	c #073F61",
"d$	c #074163",
"e$	c #074063",
"f$	c #063C5C",
"g$	c #064164",
"h$	c #074E79",
"i$	c #7F1C1B",
"j$	c #0C6CA9",
"k$	c #0966A0",
"l$	c #065788",
"m$	c #0B517E",
"n$	c #0C68A2",
"o$	c #0C73B3",
"p$	c #0B74B5",
"q$	c #096DA9",
"r$	c #075D90",
"s$	c #085F93",
"t$	c #085889",
"u$	c #C21614",
"v$	c #6C1818",
"w$	c #08639A",
"x$	c #07649B",
"y$	c #075D91",
"z$	c #08517D",
"A$	c #0A5786",
"B$	c #0D6AA4",
"C$	c #0C659E",
"D$	c #520E0C",
"E$	c #805654",
"F$	c #0C639C",
"G$	c #0A5485",
"H$	c #8175AF",
"I$	c #0D6093",
"J$	c #6C1213",
"K$	c #81466A",
"L$	c #6C6CA3",
"M$	c #0B5481",
"N$	c #0C5E94",
"O$	c #094D75",
"P$	c #B00C0C",
"Q$	c #C2221C",
"R$	c #672232",
"S$	c #672436",
"T$	c #064269",
"U$	c #0A537E",
"V$	c #0A5380",
"W$	c #084E79",
"X$	c #06436A",
"Y$	c #085B8B",
"Z$	c #06476D",
"`$	c #0C69A6",
" %	c #0A69A5",
".%	c #095F96",
"+%	c #094B75",
"@%	c #084C74",
"#%	c #485885",
"$%	c #1B7AB7",
"%%	c #652A3F",
"&%	c #64293E",
"*%	c #64293F",
"=%	c #652D45",
"-%	c #652D47",
";%	c #652A40",
">%	c #63293F",
",%	c #085A8C",
"'%	c #054E78",
")%	c #074269",
"!%	c #0E75B8",
"~%	c #0C6FAF",
"{%	c #043858",
"]%	c #053B5E",
"^%	c #0A629B",
"/%	c #054D78",
"(%	c #525785",
"_%	c #575A88",
":%	c #653047",
"<%	c #652D44",
"[%	c #652F47",
"}%	c #1D87CC",
"|%	c #128BD2",
"1%	c #653048",
"2%	c #074A73",
"3%	c #085F95",
"4%	c #07456D",
"5%	c #0E70B0",
"6%	c #0A4E7A",
"7%	c #073D5E",
"8%	c #545683",
"9%	c #575A89",
"0%	c #652E47",
"a%	c #65293E",
"b%	c #074A72",
"c%	c #043758",
"d%	c #08659F",
"e%	c #672336",
"f%	c #096DA7",
"g%	c #074F7A",
"h%	c #074971",
"i%	c #065889",
"j%	c #076AA5",
"k%	c #186AA5",
"l%	c #05466D",
"m%	c #043D5E",
"n%	c #085F96",
"o%	c #064971",
"p%	c #0A4C76",
"q%	c #033858",
"r%	c #094C74",
"s%	c #62293F",
"t%	c #053F62",
"u%	c #084B73",
"                                                                                                                                ",
"                                                          . + @ # $ $ $ $ $ $ $ $ % &                                           ",
"            * =                                         - ; > ; , ' ' ' ' ' ' ' ' ) ! ~       { { { { { {               ] ^     ",
"        / ( _ : <                                     [ ; } | 1 ! ! ! ! ! ! ! ! ! | 2 1 3     4 5 4 4 6 7 8           9 0 a     ",
"      / b c d e                                         f 1 1 1 1 ! ! ! ! ! ! ! ! g h 1 i   j 5 k k 5 l               m n o     ",
"      ( c p q                                           r ! 1 1 1 ! ! ! ! ! ! ! ! | 2 1 3   s t u v v 8               w 0 a     ",
"    * _ d q                                           x y x 1 1 1 ! ! ! ! ! ! ! ! | 2 1 3   z A B                     9 0 a     ",
"    C : D                                           x E F x x x x ! ! ! ! ! x G ! | 2 1 3   H I q                   q J K o     ",
"      <                                           x L M M x N O P Q R S T ! M U ! | 2 1 3     V                   q : W X o     ",
"      Y Y Y Y Y Y Y Y Y Y         Z Z Z Z Z Z Z ` G M  .M x x x G G x x x | M M G ..+.1 @.    #.$.Y Y Y Y Y Y %.Y &.W *.=.-.    ",
"    ;.W W W W W W W W W W ;.    >.,.,.,.,.,.,.,.'.).!.!.~.{.].^./.(._.G G x G ~.:.<.+.! [.  b }.|.|.|.|.|.|.|.1.2.W 3.4.=.5.    ",
"    6.7.7.7.7.7.8.9.8.7.8.0.    a.b.c.b.b.b.b.b.b.d.e.f.!.g.h.i.j.k.i.l.i.m.j.!.e.<.n.o.    p.q.5.r.s.t.t.s.r.r.r.r.r.u.r.6.    ",
"                                                  v.k.M k.(.w.M x.f.f.~.y.M f.x.e.<.[.                                          ",
"                                                  <.<.z.y.A.B.C.f.f. .D.E.i.!.!.F.<.                                            ",
"                G.H.I.I.J.K.                    L.<.M.N.O.P.Q.R.!.f.S.T.U.i.~.z.V.j W.W.X.X.X.j W.Y.Z.`. +.+                    ",
"              ++,.@+#+$+%+&+*+                q =+<.-+~.;+>+,+'+e.M )+!+~+{+]+^+x v v v v v v /+v (+_+:+<+[+                    ",
"                q }+|+1+2+2+$.                  3+4+G x.5+6+7+8+z.O.,+6+>+9+0+<.                    a+b+c+                      ",
"                        @+d+Y                   <.e+~.x.8+f+g+h+y.i+j+k+l+E ~.<.                                                ",
"                        @+d+Y                   <.e+]+!.9+m+n+]+!.z.o+p+q+r+!.<.x                         s+t+u+                ",
"      9 m 9 9 v+        @+d+Y   g+                w+x+g.~.!.]+~.f.M y+z+A+x.~.N.<.                        B+C+-.                ",
"    ] D+E+E+D+F+G+      @+d+Y g+H+g+I+I+g+        <.h.~.y.g.M ~.~.~.!.f.g.z.J+K+                          L+M+N+                ",
"    O+P+o o P+Q+        R+G.g+S+T+U+H+V+W+g+      <.<.x k.]+(.y.y.g.g.G k.~.X+<.                            Y+.+                ",
"                                      U+Z+S+g+        <.`+ @j.M  . . .z..@+@<.                                                  ",
"                                        U+g+@@g+      #@$@+@+@%@<.N.%@+@&@%@*@<.                                                ",
"    =@-@    ;@>@,@,@,@,@'@'@,@,@'@)@        !@g+      ~@j.!.~.<.<.<.J+0+N.%@N.{@<.  ]@^@    /@(@_@:@<@[@[@[@}@|@                ",
"  1@2@2@1@  3@4@5@6@7@7@6@6@7@7@8@9@        U+0@g+g+#@]+M x.x.x.f.!.M ]+N.%@<.<.a@<.x t.<.<.b@c@c@d@e@f@f@g@f@h@                ",
"  1@i@i@1@    Y j@k@l@6@m@m@6@l@k@n@          S+U+x o@ .f.x.x.!.!.!.!.z.N.p@&@N.z.~.q@r@s@%@v.x t@e@e@u@u@e@u@v@      v v       ",
"  1@2@2@1@        e w@w@e e w@w@e             g+x@y@g.!.!. .k.j.M !.e.z.<.%@%@]+ .!.x.~.g.e.]+h+z@A@A@A@A@u@A@B@    W.5 5 {     ",
"  1@2@2@1@          D D     D D                 S+C@z.e.z.M !.j.g.i.M j.0+%@k+D@w.m.E@^+d.O.!.G m+G A@A@A@u@A@B@    X.k k {     ",
"  1@i@i@1@                                        F@~.w.G@w.!.e.k.(.H@4+I@J@K@L@M@M@N@N@O@P@!.k.Q@A@A@A@A@u@A@B@    X.k k {     ",
"  1@2@2@1@                          g+l+R@,+g+  @@@@S@L@L@T@ .e.]+i._.U@V@W@X@T+Y@!@!@Z@`@~.!. #x A@A@A@A@u@A@B@    W.5 5 {     ",
"  .#+#=@.#                        @#S@##$#%#&#*#=#-#T@;#>#,#~. .i.(.y+y+i.l.x '#)##.!#q.x <.<.x e@A@A@A@A@A@A@B@      X.X.      ",
"    ~#{#                    0+    g+g+S+!@g+k+k+T@C@A.M z.j.!.k.G (.~.g.G l.x )#]#^#/#q.    x t@z@A@A@A@A@u@A@B@                ",
"                            x j.j.v.k+k+k+k+k+k+(#_#m+!.z.G G (.y.j.j.i.G :#)#<#D [#}#|#    1#2#3#4#4#4#4#3#4#5#                ",
"                          0+j.i.i.G d.k+G k+k+k+6#:#7#~.]+G (.h.y.~.z.i.(.G )#D : 8#9#0#  . a#b#2 2 2 2 2 h 2 c#&   d#e#e#f#    ",
"                          0+j.g#h#i#G j.j#i.j.k+k#-+I+h.e+~.M (.]+~.]+G l.y.l#m#n#o#p#q#    r#z@s#t#t#t#t#u#t#b@    v#w#w#x#    ",
"                          j.x y#z#A#j B#i.i.j.E C#D#I+x i.M ~.(.z.z.i.(.E#x F#Y G#o#p#H#      I#@.3 3 3 3 i 3       J#K#K#J#    ",
"                          j.x L#M+M#N#O#P#Q#G j.i.#@6+l.k.j.k.(.z.]+G h.x R#N#m#S#o#p#H#                            T#U#V#W#    ",
"                          j.x Y B+X#Y#O#P#Q#Z#]#`#I+(#/.i.]+(.i.i.(.l.G  $.$@.G S#_#<.q#    +$J                       @$#$      ",
"                          0+x l#l#$$%$O#P#Q#Z#]#g+W+E#y.l.y.G G (.l.x G G x E#(.g.]+0+<.    J &$++                              ",
"                            j.%$%$*$=$O#P#Q#Z#,+0@  x -$(.G (.l.h.y.]+]+]+k.j. .M  .z.;+      q                                 ",
"      ;$;$                  j.0+>$%$=$O#P#,+,$####  '$x x e+e+/.z. .M !.x.x.x.x.x.!.M         #.$.Y Y Y Y Y Y Y Y Y Y Y Y       ",
"    )$!$!$~$    {$]$^$^$]$/$0+0+l#$$%$U+S+,+-#g+    x ~@z.j.G z.~.j.~.j.q@m. .!.x.x.x.      ($_$:$<$<$<$<$<$<$<$<$<$<$<$<$H     ",
"  [$' }$}$' [$  |$v v v v 1$2$0+3$)#>$O#P#Q#Z#      x 0+f.!.4$<.<.<.5$6$x x 7$8$<.z+E 9$    +$q.5.r.r.r.r.r.r.r.r.r.r.u.r.0$    ",
"  ;$a$b$b$!$;$    c$d$e$c$f$  0+j.l#>$O#P#Q#Z#      0+<.x.x.4$x                                                                 ",
"  g$' }$}$' [$    2$            0+0+>$O#P#Q#Z#      0+C#!.!.4$x                                                                 ",
"  g$' }$}$' [$  |$h$2$          0+j.i.O#P#Q#Z#        0+~.~.i$x                     Y+j$`.k$l$W.j W.W.W.W.W.W.W.W.W.W.X.W.      ",
"  g$' }$}$' [$  ]$v e$            0+j.i.P#Q#Z#        0+k.z.C#                    m$n$o$p$q$r$v /+7 6 4 4 4 4 6 7 /+/+s s$t$    ",
"  g$' }$}$' [$  ]$v e$            0+r+u$P#Q#Z#          <.<.v$                      (+w$x$y$z$      l 5 k k 5 l       A$B$C$    ",
"  g$' }$}$' [$  |$1$f$              0+0+P#Q#Z#      0+D$N.<.~@x                     8 v v 8         8 v v v v '$    q d _ *     ",
"  g$' }$}$' [$    2$                  O#P#Q#Z#      0+h.<.0+<.E$                                                  q F$C$G$      ",
"  g$' }$}$' [$                        B#H$Q#I$        J+z.z.]+N.                                                e d c b /       ",
"  g$' }$}$' [$                        O#P#Q#Z#      J$M !.e.M k.n+                                            < : _ ( /         ",
"  ;$a$}$}$' [$                        K$=@L$M$        !.x.x.x.!.O.x                                             C N$            ",
"  [$' }$}$' [$                          {#O$        x <.P$!.!.Q$<.                                                              ",
"    ~$R$S$' ;$    2$                      T$T$          x x x                                           {#&         U$V$W$X$    ",
"      Y$R$' Z$  |$1$f$                  0.`$ %u+                u+.%+%              /$]$^$]$]$^$]$W.  @%#%$%%%&%*%%%=%-%;%>%;$  ",
"      ,%R$' Z$  '%7 [ 2$        2$    )%r.!%~%t+{%            ]%t+^%v+            2$1$v v 7 6 5 4 /%  3 (%_%:%<%<%[%}%|%1%W 2%  ",
"    3%R$S$' ;$  ]$6 l 1$2$    f$1$|$  4%u.5%]@6%                6%v+7%              f$c$e$[ l k k /%  i 8%9%1%=%<%-%:%:%0%a%b%  ",
"  c%d%e%}$f%;$  ]$k k l [ 2$  f$g%|$  4%u.<$Y                                             c$v k k /%  i 8%9%1%=%<%=%=%*.=%&%h%  ",
"    i%j%e%k%l%  '%4 k 6 7 1$2$  2$    4%r.!#%.                                            c$v 5 4 /%  3 (%_%:%<%<%<%<%<%<%&%$   ",
"    m%i%d%n%    {$^$^$^$^$o%            6.H p%                                              o%^$^$q%  r%#%$%%%&%&%&%&%&%&%s%t%  ",
"        c%                                                                                              u%& % $ $ $ $ h%$ t%    ",
"                                                                                                                                "};
